<?xml version="1.0" encoding="UTF-8" standalone="no"?>
<!-- Created with Inkscape (http://www.inkscape.org/) -->

<svg
   width="60mm"
   height="60mm"
   viewBox="0 0 60 60"
   version="1.1"
   id="svg5"
   xml:space="preserve"
   inkscape:version="1.2.2 (732a01da63, 2022-12-09)"
   sodipodi:docname="clear_icone.svg"
   xmlns:inkscape="http://www.inkscape.org/namespaces/inkscape"
   xmlns:sodipodi="http://sodipodi.sourceforge.net/DTD/sodipodi-0.dtd"
   xmlns="http://www.w3.org/2000/svg"
   xmlns:svg="http://www.w3.org/2000/svg"><sodipodi:namedview
     id="namedview7"
     pagecolor="#ffffff"
     bordercolor="#000000"
     borderopacity="0.25"
     inkscape:showpageshadow="2"
     inkscape:pageopacity="0.0"
     inkscape:pagecheckerboard="0"
     inkscape:deskcolor="#d1d1d1"
     inkscape:document-units="mm"
     showgrid="false"
     inkscape:zoom="0.73851712"
     inkscape:cx="95.461565"
     inkscape:cy="287.06173"
     inkscape:window-width="1920"
     inkscape:window-height="1009"
     inkscape:window-x="-8"
     inkscape:window-y="-8"
     inkscape:window-maximized="1"
     inkscape:current-layer="layer1" /><defs
     id="defs2" /><g
     inkscape:label="Layer 1"
     inkscape:groupmode="layer"
     id="layer1"
     transform="translate(-67.90852,-69.34581)"><path
       style="fill:#000000;stroke-width:0.264583"
       d="m 103.46477,126.30689 c -7.806205,-1.65059 -18.404885,-7.5222 -23.381345,-12.95313 -1.73354,-1.89185 -3.47386,-4.99666 -3.47386,-6.19751 0,-1.37339 0.72623,-1.88471 2.82994,-1.99248 2.41426,-0.12369 4.36081,-0.8164 6.76214,-2.40641 1.96809,-1.30315 6.17283,-5.343246 7.3448,-7.057216 0.86417,-1.26382 1.82228,-1.67051 2.8148,-1.19481 1.10007,0.52725 1.3841,1.5975 0.74205,2.79606 -0.80828,1.50887 -5.98228,6.729766 -8.16397,8.237956 -2.32216,1.60532 -4.83427,2.84011 -6.27228,3.08306 -0.56672,0.0957 -1.03047,0.31245 -1.03055,0.48156 -2e-4,0.40933 4.443,4.70386 5.35778,5.1785 0.66809,0.34665 0.85897,0.30398 2.69094,-0.60142 1.24678,-0.61619 2.55483,-1.54855 3.5573,-2.53558 l 1.58546,-1.56103 -0.35453,1.00484 c -0.64353,1.82396 -1.71692,3.89577 -2.65462,5.12385 l -0.92394,1.21004 2.21074,1.20507 c 1.21591,0.66279 2.272,1.20508 2.34688,1.20508 0.0749,0 0.3921,-0.70197 0.70493,-1.55992 0.48759,-1.33728 2.99614,-5.58383 3.29851,-5.58383 0.0566,0 -0.0582,0.68461 -0.25511,1.52135 -0.43104,1.83172 -0.46703,4.33278 -0.0878,6.1011 l 0.27848,1.29849 2.357145,0.72307 c 1.29642,0.39768 3.09476,0.78995 3.9963,0.8717 1.63163,0.14795 1.63834,0.14571 1.45794,-0.48719 -0.97638,-3.42535 -1.02443,-3.8468 -0.88708,-7.77957 0.20069,-5.74593 1.71275,-11.39338 3.23637,-12.08759 0.92175,-0.41998 2.01603,-0.01 2.46343,0.92389 0.30353,0.63329 0.27803,0.9486 -0.1921,2.37509 -1.29139,3.91844 -1.70642,6.30461 -1.71272,9.84695 -0.007,3.73688 0.39553,5.34441 1.82019,7.27543 1.75672,2.3811 -0.13299,3.99185 -4.62976,3.94631 -1.0914,-0.0111 -2.81781,-0.19632 -3.83646,-0.41171 z m 0.92627,-28.683616 c -5.165855,-2.75631 -9.431685,-5.12911 -9.479615,-5.2729 -0.17058,-0.51174 0.99425,-1.76248 2.30666,-2.47679 1.62442,-0.88412 3.552635,-1.1546 4.953485,-0.69483 1.2633,0.41461 9.18675,4.60837 10.3125,5.45824 1.35795,1.02517 2.29278,3.05004 2.28488,4.94915 -0.007,1.607546 -0.38493,3.092286 -0.78045,3.063516 -0.11274,-0.008 -4.4316,-2.27008 -9.59746,-5.026386 z m 4.30314,-8.52644 c -2.81636,-1.5332 -2.9541,-1.64684 -2.61967,-2.16121 0.19415,-0.29861 2.3496,-3.73699 4.78988,-7.64084 2.44029,-3.90385 4.6023,-7.16138 4.80448,-7.23897 1.14493,-0.43935 3.5386,0.94034 3.5386,2.03963 0,0.5624 -7.13817,16.6718 -7.37385,16.64128 -0.0917,-0.0119 -1.50447,-0.74984 -3.13944,-1.63989 z"
       id="path349" /></g></svg>
