<?xml version="1.0" encoding="UTF-8" standalone="no"?>
<!-- Created with Inkscape (http://www.inkscape.org/) -->

<svg
   width="60mm"
   height="60mm"
   viewBox="0 0 60 60"
   version="1.1"
   id="svg359"
   xml:space="preserve"
   inkscape:version="1.2.2 (732a01da63, 2022-12-09)"
   sodipodi:docname="shape_icon.svg"
   xmlns:inkscape="http://www.inkscape.org/namespaces/inkscape"
   xmlns:sodipodi="http://sodipodi.sourceforge.net/DTD/sodipodi-0.dtd"
   xmlns="http://www.w3.org/2000/svg"
   xmlns:svg="http://www.w3.org/2000/svg"><sodipodi:namedview
     id="namedview361"
     pagecolor="#ffffff"
     bordercolor="#000000"
     borderopacity="0.25"
     inkscape:showpageshadow="2"
     inkscape:pageopacity="0.0"
     inkscape:pagecheckerboard="0"
     inkscape:deskcolor="#d1d1d1"
     inkscape:document-units="mm"
     showgrid="false"
     inkscape:zoom="0.52221046"
     inkscape:cx="-303.51747"
     inkscape:cy="275.75089"
     inkscape:window-width="1920"
     inkscape:window-height="1009"
     inkscape:window-x="-8"
     inkscape:window-y="-8"
     inkscape:window-maximized="1"
     inkscape:current-layer="layer1" /><defs
     id="defs356" /><g
     inkscape:label="Layer 1"
     inkscape:groupmode="layer"
     id="layer1"
     transform="translate(-82.988559,-79.796916)"><g
       id="g1430"
       transform="matrix(0.36156653,0,0,0.36156653,72.868692,71.296503)"><path
         id="path546"
         style="fill:none;stroke:#000000;stroke-width:8.62153;stroke-linecap:round;stroke-linejoin:round;stroke-dasharray:none"
         inkscape:transform-center-x="-1.2062014"
         inkscape:transform-center-y="-2.3991894"
         d="M 3.1692714,156.38888 -20.975912,140.35762 16.86368,139.45091 27.958,103.26289 l 12.555409,35.7074 37.845186,-0.63139 -30.079922,22.9751 3.422415,9.72519"
         transform="matrix(0.92790993,0,0,0.92790993,67.272221,-59.142034)"
         sodipodi:nodetypes="cccccccc" /><path
         id="path1348"
         style="fill:none;stroke:#000000;stroke-width:9.17076;stroke-linecap:round;stroke-linejoin:round;stroke-dasharray:none"
         inkscape:transform-center-x="-4.3549932e-06"
         inkscape:transform-center-y="-9.7489344"
         d="m 14.142877,192.76326 67.44064,0.074 -49.646429,-86.16905 -19.541011,33.89078"
         transform="matrix(0.87233802,0,0,0.87233802,113.15833,-10.66614)"
         sodipodi:nodetypes="cccc" /><path
         id="path1210"
         style="fill:none;stroke:#000000;stroke-width:8;stroke-linecap:round;stroke-linejoin:round;stroke-dasharray:none"
         d="M 118.60664,135.78166 A 40.50531,40.50531 0 0 1 78.101326,176.28697 40.50531,40.50531 0 0 1 37.596016,135.78166 40.50531,40.50531 0 0 1 78.101326,95.276352 40.50531,40.50531 0 0 1 118.60664,135.78166 Z" /></g></g></svg>
